<svg viewBox="0 0 40 40" ><path d="M13.047 38.5a.349.349 0 01-.242-.095L2.59 28.585a.284.284 0 01-.086-.254l3.35-18.41a.307.307 0 01.196-.23l20.776-8.165a.354.354 0 01.374.07l10.21 9.816a.278.278 0 01.015.397L13.305 38.39a.35.35 0 01-.258.11z" fill="#F5CE85"></path><path d="M26.924 2.023l9.99 9.603-23.874 26.31-10.022-9.635 3.307-18.18 20.6-8.097M26.956 1a.863.863 0 00-.315.06L5.867 9.227a.804.804 0 00-.505.602l-3.35 18.41c-.047.258.04.52.23.704l10.217 9.82a.838.838 0 00.587.236c.23 0 .462-.092.627-.274l24.12-26.584a.775.775 0 00-.04-1.09l-10.21-9.817a.837.837 0 00-.587-.235z" fill="#967A44"></path><path d="M14 33l-4.486 1.547-3.29-3.164 1.57-1.23 1.94-3.787 4.807-2.913 3.74-5.826L21.53 15.2l2.72-4.37 3.64-1.844 2.384-3.74 3.462 3.33L33 11l-4.865 4.734-4.175 6.748-6.07 4.66L14 33z" fill="#FFF3DE"></path><path d="M3.018 28.3l3.307-18.18 20.6-8.097L3.017 28.3z" fill="#FFE1A9"></path><path fill="none" stroke="#967A44" stroke-linecap="round" stroke-linejoin="round" stroke-miterlimit="10" d="M26.93 2.02L3.296 28.28"></path><path d="M5.5 31.5c3.904-.893 2.17-4.258 5.77-6.01 6.13-2.986 5.146-6.905 7.836-8.477 5.384-3.145 2.787-5.327 6.983-6.983 3.27-1.29 3.988-4.612 4.41-5.53" fill="none" stroke="#C74343" stroke-linecap="round" stroke-linejoin="round" stroke-miterlimit="10"></path><path d="M8.5 34.5c3.52-.635 6.033-.853 7.662-4.62 2.547-5.896 7.265-5.204 8.88-9.17 3.492-8.59 9.816-7.78 8.458-13.21" fill="#BAE0BD" stroke="#5E9C76" stroke-linecap="round" stroke-miterlimit="10"></path><circle transform="rotate(-89.89 12.507 10.5)" cx="12.507" cy="10.5" fill="#967A44" r=".5"></circle><circle transform="rotate(-89.89 16.507 8.5)" cx="16.507" cy="8.5" fill="#967A44" r=".5"></circle><circle transform="rotate(-89.89 11.507 14.5)" cx="11.507" cy="14.5" fill="#967A44" r=".5"></circle><circle transform="rotate(-89.89 8.507 13.5)" cx="8.507" cy="13.5" fill="#967A44" r=".5"></circle><circle transform="rotate(-89.89 7.507 18.5)" cx="7.507" cy="18.5" fill="#967A44" r=".5"></circle></svg>