<svg viewBox="0 0 40 40"><path fill="none" stroke="#7A4F34" stroke-linecap="round" stroke-miterlimit="10" d="M1.5 38.5L34.208 5.794"></path><path d="M34.228 8.683c-.777 0-1.508-.303-2.057-.853s-.85-1.28-.85-2.057.302-1.507.85-2.057c1.832-1.83 5.084-2.15 6.303-2.205-.094 1.285-.497 4.63-2.188 6.32a2.89 2.89 0 01-2.057.853z" fill="#F5CE85"></path><path d="M37.927 2.047c-.176 1.62-.705 4.138-1.996 5.43a2.391 2.391 0 01-1.702.706 2.39 2.39 0 01-1.703-.706c-.455-.455-.706-1.06-.706-1.703s.25-1.248.705-1.703c1.48-1.48 3.998-1.903 5.402-2.023M38.91 1c-.667 0-4.823.093-7.093 2.363a3.41 3.41 0 004.822 4.82C38.92 5.904 39 1.002 39 1.002h-.09z" fill="#967A44"></path><path d="M31.5 15.5c-1.604 0-2.91-1.304-2.91-2.908s1.306-2.91 2.91-2.91c2.583 0 5.09 2.053 6.015 2.898-.974.842-3.624 2.92-6.015 2.92z" fill="#F5CE85"></path><path d="M31.5 10.183c2.09 0 4.162 1.472 5.248 2.387-1.143.922-3.31 2.43-5.248 2.43-1.328 0-2.41-1.08-2.41-2.408s1.082-2.41 2.41-2.41m0-1a3.41 3.41 0 000 6.82c3.226 0 6.75-3.41 6.75-3.41s-3.253-3.41-6.75-3.41z" fill="#967A44"></path><path d="M26.045 20.955c-1.604 0-2.91-1.305-2.91-2.91s1.306-2.908 2.91-2.908c2.583 0 5.09 2.052 6.015 2.897-.974.842-3.623 2.92-6.015 2.92z" fill="#F5CE85"></path><path d="M26.045 15.637c2.09 0 4.162 1.472 5.248 2.387-1.143.922-3.31 2.43-5.248 2.43-1.328 0-2.41-1.08-2.41-2.408s1.082-2.41 2.41-2.41m0-1a3.41 3.41 0 000 6.82c3.226 0 6.75-3.41 6.75-3.41s-3.253-3.41-6.75-3.41z" fill="#967A44"></path><path d="M20.59 26.41c-1.603 0-2.908-1.305-2.908-2.91s1.305-2.908 2.91-2.908c2.582 0 5.09 2.052 6.015 2.897-.976.84-3.625 2.92-6.016 2.92z" fill="#F5CE85"></path><path d="M20.59 21.092c2.09 0 4.163 1.472 5.25 2.387-1.144.92-3.31 2.43-5.25 2.43a2.41 2.41 0 01.002-4.818m0-1a3.41 3.41 0 100 6.818c3.225 0 6.75-3.41 6.75-3.41s-3.255-3.408-6.75-3.408z" fill="#967A44"></path><path d="M15.136 31.864c-1.604 0-2.91-1.305-2.91-2.91s1.306-2.908 2.91-2.908c2.583 0 5.092 2.052 6.016 2.897-.975.842-3.625 2.92-6.016 2.92z" fill="#F5CE85"></path><path d="M15.136 26.546c2.09 0 4.162 1.472 5.248 2.387-1.143.922-3.31 2.43-5.248 2.43-1.328 0-2.41-1.08-2.41-2.408s1.082-2.41 2.41-2.41m0-1a3.41 3.41 0 000 6.82c3.226 0 6.75-3.41 6.75-3.41s-3.253-3.41-6.75-3.41z" fill="#967A44"></path><path d="M27.41 11.41A2.913 2.913 0 0124.5 8.5c0-2.395 2.08-5.042 2.92-6.016.847.924 2.898 3.433 2.898 6.017a2.913 2.913 0 01-2.91 2.91z" fill="#F5CE85"></path><path d="M27.43 3.253c.918 1.087 2.39 3.157 2.39 5.247 0 1.33-1.08 2.41-2.41 2.41S25 9.83 25 8.5c0-1.938 1.51-4.104 2.43-5.247m-.02-1.502S24 5.276 24 8.5a3.41 3.41 0 106.818 0c0-3.496-3.41-6.75-3.41-6.75z" fill="#967A44"></path><path d="M21.955 16.864a2.913 2.913 0 01-2.91-2.91c0-2.395 2.08-5.04 2.922-6.015.845.923 2.897 3.432 2.897 6.015a2.913 2.913 0 01-2.91 2.91z" fill="#F5CE85"></path><path d="M21.98 8.703c1.01 1.202 2.384 3.28 2.384 5.252 0 1.328-1.08 2.41-2.41 2.41s-2.408-1.082-2.408-2.41c0-1.94 1.512-4.11 2.434-5.252m-.025-1.497s-3.41 3.524-3.41 6.75a3.41 3.41 0 006.82 0c0-3.497-3.41-6.75-3.41-6.75z" fill="#967A44"></path><path d="M16.5 22.32a2.914 2.914 0 01-2.91-2.91c0-2.392 2.08-5.04 2.922-6.016.845.924 2.897 3.433 2.897 6.016a2.913 2.913 0 01-2.91 2.91z" fill="#F5CE85"></path><path d="M16.525 14.158c1.01 1.202 2.384 3.28 2.384 5.252 0 1.328-1.082 2.41-2.41 2.41s-2.41-1.082-2.41-2.41c0-1.94 1.513-4.11 2.435-5.252M16.5 12.66s-3.41 3.524-3.41 6.75a3.41 3.41 0 006.82 0c0-3.497-3.41-6.75-3.41-6.75z" fill="#967A44"></path><path d="M11.045 27.773a2.913 2.913 0 01-2.91-2.91c0-2.395 2.08-5.04 2.922-6.015.845.924 2.897 3.433 2.897 6.016a2.913 2.913 0 01-2.91 2.91z" fill="#F5CE85"></path><path d="M11.07 19.612c1.01 1.202 2.385 3.28 2.385 5.252 0 1.328-1.08 2.41-2.41 2.41s-2.408-1.082-2.408-2.41c0-1.94 1.512-4.11 2.434-5.252m-.025-1.497s-3.41 3.524-3.41 6.75a3.41 3.41 0 006.82 0c0-3.497-3.41-6.75-3.41-6.75z" fill="#967A44"></path><path d="M9.682 37.32c-1.604 0-2.91-1.306-2.91-2.91s1.306-2.91 2.91-2.91c2.583 0 5.092 2.053 6.016 2.898-.975.842-3.625 2.92-6.016 2.92z" fill="#F5CE85"></path><path d="M9.682 32c2.092 0 4.166 1.476 5.25 2.39-1.268 1.022-3.423 2.43-5.25 2.43-1.328 0-2.41-1.082-2.41-2.41S8.353 32 9.683 32m0-1a3.41 3.41 0 000 6.82c3.226 0 6.75-3.41 6.75-3.41S13.178 31 9.682 31z" fill="#967A44"></path><path d="M5.59 33.228a2.912 2.912 0 01-2.908-2.908c0-2.392 2.08-5.04 2.92-6.016.846.924 2.898 3.432 2.898 6.015a2.912 2.912 0 01-2.91 2.908z" fill="#F5CE85"></path><path d="M5.616 25.067C6.626 26.27 8 28.347 8 30.32a2.41 2.41 0 01-4.818-.002c0-1.94 1.512-4.11 2.434-5.25m-.025-1.5s-3.408 3.525-3.408 6.75a3.41 3.41 0 106.817 0c0-3.496-3.41-6.75-3.41-6.75z" fill="#967A44"></path><path fill="none" stroke="#36404D" stroke-miterlimit="10" d="M3 3l34 34"></path></svg>