<?xml version="1.0" standalone="no"?><!DOCTYPE svg PUBLIC "-//W3C//DTD SVG 1.1//EN" "http://www.w3.org/Graphics/SVG/1.1/DTD/svg11.dtd"><svg t="1718030874795" class="icon" viewBox="0 0 1109 1024" version="1.1" xmlns="http://www.w3.org/2000/svg" p-id="1471" xmlns:xlink="http://www.w3.org/1999/xlink" width="216.6015625" height="200"><path d="M147.552427 1.792L87.051093 62.293333 218.464427 193.365333c-52.906667 45.909333-85.333333 98.730667-104.192 146.773334-17.92-2.218667-20.309333-8.704-24.149334-16.981334-4.778667-10.069333-4.864-21.845333-4.864-21.845333a42.666667 42.666667 0 1 0-84.992-5.290667s-2.730667 30.890667 12.458667 63.488c11.861333 25.173333 39.424 51.2 78.336 61.781334C86.19776 449.877333 85.344427 469.333333 85.344427 469.333333c0 194.730667 87.637333 440.661333 87.637333 440.661334A42.666667 42.666667 0 0 0 213.344427 938.666667h85.333333a42.666667 42.666667 0 0 0 42.666667-42.666667V776.874667c61.354667 25.685333 176.213333 64.341333 322.816 71.253333a1625.770667 1625.770667 0 0 1 20.309333 60.501333A42.666667 42.666667 0 0 0 725.344427 938.666667h85.333333a42.666667 42.666667 0 0 0 42.666667-42.666667v-46.933333c6.314667-0.682667 12.8-1.024 19.2-1.536l174.592 174.677333 60.416-60.416L147.552427 1.792zM554.67776 85.333333c-65.877333 0-125.269333 8.618667-178.858667 24.149334l70.997334 70.997333C480.267093 174.506667 515.76576 170.666667 554.67776 170.666667c153.344 0 245.333333 69.802667 290.816 117.333333-13.994667 5.973333-27.306667 12.8-39.168 22.186667-20.906667 16.469333-38.314667 43.52-38.314667 73.813333a42.666667 42.666667 0 1 0 85.333334 0c0-1.706667-1.365333-1.28 5.632-6.826667 7.082667-5.546667 22.528-12.885333 43.178666-18.688 29.866667-8.277333 71.253333-12.544 114.517334-14.848-17.237333 57.088-61.013333 91.562667-61.013334 91.562667a42.666667 42.666667 0 0 0-16.981333 34.133333s-0.341333 44.117333 12.202667 90.965334c6.229333 23.466667 15.36 48.469333 33.109333 70.741333 8.618667 10.752 26.453333 12.373333 40.021333 19.797333v50.858667c-7.936 5.461333-13.226667 9.898667-34.986666 20.992l62.805333 62.805333c20.394667-11.690667 28.842667-18.176 33.877333-21.845333A42.666667 42.666667 0 0 0 1109.344427 718.336V629.333333a42.666667 42.666667 0 0 0-42.666667-42.666666c-8.021333 0-9.813333-1.194667-16.042667-8.96a117.333333 117.333333 0 0 1-17.493333-39.338667c-6.997333-26.282667-6.826667-44.202667-7.338667-54.698667 24.32-21.333333 79.274667-76.117333 82.858667-175.189333a42.666667 42.666667 0 0 0-12.117333-40.789333 42.666667 42.666667 0 0 0-3.157334-2.816 42.666667 42.666667 0 0 0-36.181333-8.362667c-41.216 0.256-81.066667 3.584-119.04 9.130667C903.34976 217.6 788.491093 85.333333 554.67776 85.333333zM278.539093 253.44l516.437334 516.522667A42.666667 42.666667 0 0 0 768.011093 809.642667V853.333333h-11.690666c-2.048-6.229333-2.048-6.826667-4.437334-13.824a615.509333 615.509333 0 0 0-11.690666-31.658666 133.461333 133.461333 0 0 0-6.314667-13.653334c-1.365333-2.474667-2.56-5.034667-5.888-9.216a42.666667 42.666667 0 0 0-8.277333-8.021333 41.386667 41.386667 0 0 0-16.896-7.936L693.344427 768c-177.749333 0-376.32-91.818667-376.32-91.818667A42.666667 42.666667 0 0 0 256.011093 714.666667V853.333333h-10.666666C231.86176 812.202667 170.67776 620.458667 170.67776 469.333333c0 0 1.194667-127.573333 107.861333-215.893333z m401.493334 597.589333c4.778667 0 8.533333 2.304 13.312 2.304l-9.130667-1.024-4.266667-1.28z" fill="#1296db" p-id="1472"></path></svg>