<?xml version="1.0" standalone="no"?><!DOCTYPE svg PUBLIC "-//W3C//DTD SVG 1.1//EN" "http://www.w3.org/Graphics/SVG/1.1/DTD/svg11.dtd"><svg t="1718031012561" class="icon" viewBox="0 0 1642 1024" version="1.1" xmlns="http://www.w3.org/2000/svg" p-id="3755" xmlns:xlink="http://www.w3.org/1999/xlink" width="320.703125" height="200"><path d="M480.014467 43.624439c224.034487 42.360823 302.762441 192.527106 302.762441 326.980196 0 66.659574-12.473359 411.458854-108.939402 466.293036-146.683462 83.344717-226.788345 42.117835-254.407925 36.367132-138.502882-28.753522-308.837128-97.195005-357.272639-224.034487C-35.200055 393.526457 201.145799-9.103851 480.014467 43.624439z" fill="#47281C" p-id="3756"></path><path d="M352.851002 158.719524c50.946382 16.199167 82.453763 29.077506 103.188697 64.229699 90.553346 153.892091 34.261239 314.83082-42.60381 389.913962-41.307877 40.497919-151.462216 36.367131-205.567436 32.398335-18.062072-1.538921-145.792507 4.373775-109.34438-280.245598 32.560327-255.460871 199.330756-223.710503 254.326929-206.296398z" fill="#F7F2DF" p-id="3757"></path><path d="M145.015683 181.398359a575.556421 575.556421 0 0 1 58.478995-65.687625 381.490395 381.490395 0 0 1 70.952354-52.72829 436.486568 436.486568 0 0 1 80.995837-36.367131A604.95791 604.95791 0 0 1 442.837378 5.556395a418.991467 418.991467 0 0 1 90.715338-4.940746A494.074609 494.074609 0 0 1 623.701083 14.303946a532.952611 532.952611 0 0 1 85.369613 29.563481c13.850288 6.074688 27.376593 12.635351 40.497918 19.762984 6.722655 3.563817 13.364313 7.127634 19.843981 11.177426l9.800496 5.993691 4.85975 3.239834a72.248287 72.248287 0 0 1 6.155684 4.292779 410.162921 410.162921 0 0 1 33.532276 32.398335c10.205476 11.177426 20.086968 22.597839 29.320494 34.585223a525.743981 525.743981 0 0 1 49.488456 75.407125 533.195598 533.195598 0 0 1 36.20514 81.967787 265.423359 265.423359 0 0 1 14.822238 89.095421 296.282774 296.282774 0 0 1-16.199168 88.447455 542.672111 542.672111 0 0 1-35.881156 80.995838c-27.862568 51.999328-60.341899 100.920814-92.659238 149.680307v-10.69145a371.284919 371.284919 0 0 1 30.778419 59.288953 133.238153 133.238153 0 0 1 8.990538 34.099247 53.214265 53.214265 0 0 1-1.457925 21.058918 35.962152 35.962152 0 0 1-5.750705 11.582405 48.597502 48.597502 0 0 1-3.239833 3.968796l-2.753859 3.158837a339.210567 339.210567 0 0 1-107.724464 79.294925 479.25237 479.25237 0 0 1-127.24446 39.12099 727.504612 727.504612 0 0 1-131.699232 9.395517c-10.853442 0-21.949872-0.485975-33.208294-1.052946a245.660375 245.660375 0 0 1-34.504226-4.454771 612.085544 612.085544 0 0 1-64.79667-16.199167 525.419998 525.419998 0 0 1-122.465707-54.510199 396.879604 396.879604 0 0 1-102.783717-89.095421 350.145005 350.145005 0 0 1-64.79667-120.035831l3.158837 6.155683c-4.130788-6.236679-6.80365-11.09643-9.881492-16.199167s-5.507717-10.853442-8.099584-16.199168A362.132389 362.132389 0 0 1 2.705997 557.219045a376.71164 376.71164 0 0 1 9.314521-139.474833 449.931877 449.931877 0 0 1 22.516843-65.282645A567.942813 567.942813 0 0 1 66.206733 291.633693c11.987384-19.439001 25.432693-37.582069 38.392027-55.968123s26.566635-36.448127 40.416923-54.267211z m3.8878 2.996846a946.760344 946.760344 0 0 0-74.273182 112.179235 392.100849 392.100849 0 0 0-41.469869 125.381556A348.930068 348.930068 0 0 0 38.182174 550.820373a390.480933 390.480933 0 0 0 19.519996 60.746879c4.130788 9.800496 8.74755 19.358005 13.688297 28.510534 2.510871 4.616763 5.021742 9.233525 7.694605 13.607301s5.669709 9.071534 8.099583 12.06838l1.781909 2.267883 1.457925 3.887801a334.674801 334.674801 0 0 0 59.288953 102.459734 391.371887 391.371887 0 0 0 91.282309 76.784054 533.195598 533.195598 0 0 0 110.559318 50.379411 539.756261 539.756261 0 0 0 59.126961 16.199167 210.589177 210.589177 0 0 0 28.834518 4.454771c10.043484 0.890954 20.329955 1.457925 30.778419 1.9439a693.000386 693.000386 0 0 0 123.761639-5.102737 484.760087 484.760087 0 0 0 118.496911-30.535431 317.665675 317.665675 0 0 0 102.054755-64.79667l2.672862-2.672863c0.890954-0.809958 2.024896-2.024896 2.024896-2.024896a6.155684 6.155684 0 0 0 1.619917-2.591866 27.700576 27.700576 0 0 0 1.538921-10.610455 113.961143 113.961143 0 0 0-5.264729-28.105556 311.671983 311.671983 0 0 0-24.298752-56.697086l-3.158837-5.912696 3.482821-4.778755a1281.354149 1281.354149 0 0 0 95.656084-145.792507 448.149969 448.149969 0 0 0 34.018252-78.484967 247.685271 247.685271 0 0 0 12.473359-83.506708 226.788345 226.788345 0 0 0-18.30506-81.481813 479.65735 479.65735 0 0 0-40.497918-74.921149 571.911609 571.911609 0 0 0-51.918332-67.064554c-9.314521-10.610455-19.277009-20.572943-29.401489-30.373439A388.294045 388.294045 0 0 0 764.63384 121.542435l-7.289625-4.373775-9.071534-5.183734c-6.155684-3.239833-12.230371-6.722655-18.467051-9.881492q-18.710038-9.7195-38.149039-18.143068A712.115403 712.115403 0 0 0 612.361666 55.125848c-13.526305-3.806804-27.05261-7.370621-40.497919-10.448463s-27.538585-5.345725-41.469869-7.046638a422.393293 422.393293 0 0 0-84.073679-3.077842C389.218133 38.035726 332.116068 48.160206 279.954749 72.944932a332.7309 332.7309 0 0 0-72.167292 47.220574 445.477106 445.477106 0 0 0-58.883974 64.229699z" p-id="3758"></path><path d="M103.869798 631.816211A591.269614 591.269614 0 0 0 178.223977 676.687905a78.970942 78.970942 0 0 0 33.532276 9.233525 9.314521 9.314521 0 0 0 3.968796-1.133941l8.828547-3.482821 20.491947-8.099584a130.484294 130.484294 0 0 1 25.027713-8.099584 80.347871 80.347871 0 0 1 32.398335 0 87.070525 87.070525 0 0 1 29.806469 12.149376c2.186888 1.295933 4.130788 2.672863 6.074687 4.049792l5.26473 3.8878 1.781908 0.566971a47.139577 47.139577 0 0 0 12.230372 1.457925 115.824048 115.824048 0 0 0 16.847134-1.376929 208.645277 208.645277 0 0 0 36.610118-9.15253c24.298751-8.099584 48.597502-20.410951 64.067708-39.039994a52.323311 52.323311 0 0 0 8.990538-14.903234 53.052274 53.052274 0 0 0 2.510871-8.099584l2.753858-12.068379a96.142059 96.142059 0 0 1 23.812777-44.466715 186.290426 186.290426 0 0 1 38.473022-27.457589 109.506372 109.506372 0 0 0 16.199168-12.149376 45.681652 45.681652 0 0 0 6.155683-7.046638l2.672863-3.806804 2.996846-4.85975c15.713192-25.027714 29.401489-51.027378 33.613273-76.86505a79.375921 79.375921 0 0 0-6.803651-53.295261l-4.616762-10.043484c-1.700913-3.644813-3.239833-7.20863-4.778755-10.772446-12.311367-28.591531-20.896926-56.697086-31.588376-83.020734a288.426177 288.426177 0 0 0-17.090122-36.529122 75.812104 75.812104 0 0 0-18.629043-24.298752l-1.862904-1.376929c-0.566971 0-1.052946 0-1.457925-0.404979h-0.647967l-1.052946-0.485975-4.454771-1.457925a162.801633 162.801633 0 0 0-18.143067-4.85975 355.814714 355.814714 0 0 0-39.444973-6.074688c-14.255267-1.700913-29.806468-3.239833-45.195678-5.993692-7.694605-1.214938-15.389209-2.672863-23.083813-4.29278a132.590186 132.590186 0 0 1-28.510535-8.099583 79.699904 79.699904 0 0 1-8.828546-4.778755 68.117499 68.117499 0 0 1-8.828547-7.694604 52.080324 52.080324 0 0 1-13.850288-23.002818 56.04912 56.04912 0 0 1-1.376929-22.678835 88.042475 88.042475 0 0 1 3.401825-14.903234 24.298751 24.298751 0 0 1 1.214938-3.725808 2.672863 2.672863 0 0 1 0 0.97195v2.753858a15.470205 15.470205 0 0 0 0.485975 2.672863c0 0.890954 0.485975 1.538921 1.133941 3.401825a25.918668 25.918668 0 0 0 6.155684 8.74755 22.273855 22.273855 0 0 0 4.85975 3.482822 16.199167 16.199167 0 0 0 3.644813 1.700912 17.738088 17.738088 0 0 0 3.968796 0.97195h4.616763c1.9439 0 1.376929-0.485975 0.647967 0a112.908197 112.908197 0 0 0-16.928131 5.426721 363.104339 363.104339 0 0 0-37.258085 18.143068c-6.560663 3.563817-13.202322 7.532613-21.301905 11.177425a77.270029 77.270029 0 0 1-28.591531 7.127634 51.351361 51.351361 0 0 1-29.077505-8.099584 20.734934 20.734934 0 0 1-2.429875-1.457925l-1.943901-1.214937a21.706884 21.706884 0 0 0-3.968796-2.267884 38.878002 38.878002 0 0 0-8.099583-3.482821 47.382565 47.382565 0 0 0-37.582069 4.778755l-4.616763-4.535767a56.697086 56.697086 0 0 1 44.709703-21.544893 74.192187 74.192187 0 0 1 13.364313 1.457925 44.628706 44.628706 0 0 1 6.479667 1.619917l3.158837 0.97195a15.713192 15.713192 0 0 0 2.753859 0.728962 22.921822 22.921822 0 0 0 14.01228 0 119.144877 119.144877 0 0 0 28.99651-20.734934 273.684935 273.684935 0 0 1 38.635014-28.348543 160.776737 160.776737 0 0 1 24.298751-11.987384 52.72829 52.72829 0 0 1 11.501409-2.672863H368.159216a31.91236 31.91236 0 0 1 5.264729 1.457925 24.298751 24.298751 0 0 1 4.940746 2.186888 34.342235 34.342235 0 0 1 5.993692 4.373775 31.102402 31.102402 0 0 1 7.613609 11.015434 33.532277 33.532277 0 0 1 1.538921 4.697759c0 1.376929 0.566971 2.672863 0.728962 4.049792s0 2.186888 0 2.996846v9.152529c-0.485975 3.320829-0.890954 5.345725-1.214937 7.127634-1.457925 6.965642 0 9.7195 0 6.398671a10.691451 10.691451 0 0 0-1.9439-4.535767c-0.485975 0 0-0.566971 0-0.566971h1.133941a142.957653 142.957653 0 0 0 14.579251 2.105892c6.965642 0.890954 13.931284 1.700913 20.896926 2.267884l43.332773 3.401825a314.101858 314.101858 0 0 1 48.597503 7.208629 234.887929 234.887929 0 0 1 24.70373 7.451617l5.993692 2.186888c2.105892 0.890954 5.588713 2.672863 8.099584 4.049792a93.550192 93.550192 0 0 1 8.099584 4.85975l6.884646 5.507717A137.692924 137.692924 0 0 1 606.205982 202.538272 336.456709 336.456709 0 0 1 623.701083 248.381916c9.233525 29.806468 16.199167 58.883974 23.002818 86.503555 0.890954 3.482821 1.781908 6.884646 2.753858 10.205475l2.996846 10.772447a123.518652 123.518652 0 0 1 4.535767 27.052609 127.082469 127.082469 0 0 1-8.099584 51.75634c-12.06838 31.588377-32.398335 55.725136-49.731444 79.456917l-3.239833 4.454771-4.130788 5.021742a87.394509 87.394509 0 0 1-8.990538 9.15253 163.692588 163.692588 0 0 1-19.762984 13.688296 118.901889 118.901889 0 0 0-33.127298 24.784727 56.697086 56.697086 0 0 0-9.395517 16.199167c-0.809958 3.077842-1.862904 6.074688-2.510871 9.233525s-1.133942 6.317675-1.295933 9.638505v9.962488a92.335255 92.335255 0 0 1-9.557509 39.282981 138.421886 138.421886 0 0 1-31.588377 41.388873 184.022543 184.022543 0 0 1-41.550865 28.753523 176.246942 176.246942 0 0 1-48.597502 16.766138 129.59334 129.59334 0 0 1-27.376593 2.429875 90.391355 90.391355 0 0 1-31.588377-5.669709A63.500737 63.500737 0 0 1 307.817317 729.011216l-3.563817-2.834854a23.16481 23.16481 0 0 0-2.91585-2.34888 32.88431 32.88431 0 0 0-10.691451-5.669708 28.99651 28.99651 0 0 0-11.825392-1.133942 119.630852 119.630852 0 0 0-17.90008 3.563817c-6.884646 1.700913-14.093276 3.806804-21.787881 5.588713l-5.8317 1.376929-2.91585 0.647967h-1.457925L226.821479 729.011216a52.971278 52.971278 0 0 1-18.143067 0 106.509526 106.509526 0 0 1-48.597503-23.488793 276.519789 276.519789 0 0 1-60.989866-69.818412z" p-id="3759"></path><path d="M246.746455 716.699849a87.394509 87.394509 0 0 0 3.239834 15.065225 129.59334 129.59334 0 0 0 5.8317 15.551201 145.144541 145.144541 0 0 0 17.171118 29.077506A161.991675 161.991675 0 0 0 296.720887 801.90747c4.292779 3.968796 9.233525 7.127634 13.931284 10.772446s9.881492 6.317675 14.903234 9.557509c-5.426721-2.348879-11.015434-4.373775-16.199167-6.965642a175.274992 175.274992 0 0 1-16.199168-8.099584 170.091259 170.091259 0 0 1-29.239497-21.868876 162.963625 162.963625 0 0 1-24.298752-28.429539 164.907525 164.907525 0 0 1-9.638504-16.199167A108.453426 108.453426 0 0 1 222.771687 720.911632zM186.32356 704.712465a92.092267 92.092267 0 0 0 3.239834 15.065225 124.490602 124.490602 0 0 0 5.8317 15.551201 145.144541 145.144541 0 0 0 17.171118 29.077506 154.945037 154.945037 0 0 0 23.812776 25.10871 150.571262 150.571262 0 0 0 13.850288 10.772446c4.778754 3.401825 9.962488 6.317675 14.98423 9.557509-5.426721-2.267883-11.09643-4.373775-16.199167-6.884646a176.084951 176.084951 0 0 1-16.199168-8.099584 168.795325 168.795325 0 0 1-29.239497-21.868876 160.047775 160.047775 0 0 1-24.298751-28.429539 148.870349 148.870349 0 0 1-9.557509-16.199168 113.961143 113.961143 0 0 1-7.694605-19.439001zM331.630093 703.983502a349.173055 349.173055 0 0 0 20.167963 48.597503 364.481269 364.481269 0 0 0 27.619581 45.681652 274.656885 274.656885 0 0 0 35.314185 40.497919 223.791499 223.791499 0 0 0 44.061736 31.831364 231.891083 231.891083 0 0 1-49.083478-25.513689 284.700369 284.700369 0 0 1-42.684806-36.367131 372.580852 372.580852 0 0 1-35.962152-43.575761 355.89571 355.89571 0 0 1-29.644477-49.245469zM449.074057 675.22998a360.998448 360.998448 0 0 0 24.298751 46.167627 404.412217 404.412217 0 0 0 30.859415 43.332773 315.316795 315.316795 0 0 0 37.339081 38.392027 257.890747 257.890747 0 0 0 44.385719 30.778419 264.856389 264.856389 0 0 1-49.24547-24.298752 321.229492 321.229492 0 0 1-44.142731-33.694268 422.879268 422.879268 0 0 1-38.797006-40.497919 380.03247 380.03247 0 0 1-33.694269-46.005636zM490.381934 649.230316A536.030453 536.030453 0 0 0 522.37529 696.612881q17.252113 22.921822 36.853106 44.223727a476.33652 476.33652 0 0 0 42.03684 39.768956 315.883766 315.883766 0 0 0 48.597502 32.398335 320.014554 320.014554 0 0 1-52.971277-25.837672 468.317932 468.317932 0 0 1-48.597503-34.504227q-23.083814-18.953026-44.223727-40.092939a553.525553 553.525553 0 0 1-40.497919-44.871694zM563.521176 528.141539c28.105556 29.077506 55.482149 58.397999 82.210775 88.447455s52.971278 60.665882 76.541066 93.145213c-27.700576-29.320493-57.58804-55.482149-87.880484-81.562809s-61.313849-51.351361-92.497246-75.893099zM379.498633 127.698118c9.7195-7.046638 19.196013-13.04033 29.077505-19.034021s19.924976-11.420413 30.211448-16.604147a214.23399 214.23399 0 0 1 31.831364-13.202322 82.615754 82.615754 0 0 1 33.613273-4.940746 79.051937 79.051937 0 0 0-30.292444 12.311368A205.648431 205.648431 0 0 0 447.616132 105.343267c-8.099584 7.046638-16.199167 14.498255-24.298751 22.19286s-15.308213 15.794188-22.030868 23.73178zM433.198873 152.644836c7.046638-5.264729 13.769292-9.800496 20.734934-14.417259s14.174272-8.828546 21.463897-12.797342a180.37773 180.37773 0 0 1 22.678835-10.610455 56.697086 56.697086 0 0 1 24.298751-4.616763A53.295261 53.295261 0 0 0 502.207327 121.542435a168.228354 168.228354 0 0 0-16.766139 16.199167c-5.264729 5.750704-10.286471 11.825392-15.065225 17.981076s-9.557509 12.635351-13.607301 18.791034zM594.137602 498.983037c16.847134 11.582405 32.398335 23.488793 47.787544 36.043148s30.373439 25.513689 44.547711 39.282981a474.959591 474.959591 0 0 1 40.497919 43.494765 250.520125 250.520125 0 0 1 31.831364 49.569453A248.819213 248.819213 0 0 0 720.896088 623.716627a462.081253 462.081253 0 0 0-44.790698-36.610118c-15.470205-11.339417-31.750368-21.78788-48.111528-31.831364s-33.370285-19.600993-50.055427-27.943564zM618.355358 450.466531c16.847134 11.582405 32.398335 23.569789 47.787544 36.124143s30.292443 25.513689 44.54771 39.282982a453.57669 453.57669 0 0 1 40.497919 43.494764 250.520125 250.520125 0 0 1 31.831364 49.569453A245.984358 245.984358 0 0 0 745.194839 575.119125a450.417852 450.417852 0 0 0-44.790698-36.610119c-15.470205-11.339417-31.750368-21.868876-48.111527-31.831364s-33.370285-19.600993-50.055428-27.943564z" p-id="3760"></path><path d="M171.177339 491.774408s24.298751 18.143068 0 30.292443-12.149376-12.149376-12.149376-12.149375-12.06838-18.143068 12.149376-18.143068zM298.097816 552.278299s14.174272 13.121326 0 21.78788-7.046638-8.666555-7.046638-8.666555-7.127634-13.121326 7.046638-13.121325z" fill="#47281C" p-id="3761"></path><path d="M221.637746 225.298103s22.678834 13.04033 0 21.78788S210.622312 238.338432 210.622312 238.338432s-11.582405-13.04033 11.015434-13.040329zM270.073256 382.754011s22.678834 13.04033 0 21.78788-20.167964-9.7195-20.167963-9.719501-2.429875-12.06838 20.167963-12.068379z" fill="#020202" p-id="3762"></path><path d="M383.143446 237.447478s24.298751 14.01228 0 18.143068c-14.174272 2.429875-12.149376-12.149376-12.149376-12.149376a21.301905 21.301905 0 0 1 12.149376-5.993692z" fill="#47281C" p-id="3763"></path><path d="M389.542117 382.754011s12.797342 9.233525 0 11.906388c-7.532613 1.619917-6.479667-8.099584-6.479667-8.099584s3.239833-3.806804 6.479667-3.806804z" fill="#020202" p-id="3764"></path><path d="M232.086209 479.625032s12.797342 9.233525 0 11.987384c-7.532613 1.538921-6.479667-8.099584-6.479667-8.099583s3.239833-3.8878 6.479667-3.887801zM441.217461 431.189521s19.115018 13.850288 0 17.900081c-11.339417 2.429875-9.638505-11.906388-9.638505-11.906389s4.778754-5.993692 9.638505-5.993692z" fill="#47281C" p-id="3765"></path><path d="M451.908912 192.65678a135.42504 135.42504 0 0 1 36.448126 19.358005A168.552338 168.552338 0 0 1 518.406494 240.282333a131.780228 131.780228 0 0 1 22.516843 38.635014 101.649776 101.649776 0 0 1 5.507717 24.865722 81.562808 81.562808 0 0 1 0 14.01228 54.915178 54.915178 0 0 1-1.295933 7.127634l-0.809959 3.482821-0.647967 1.619916a115.500064 115.500064 0 0 1-6.074687 11.501409 19.84398 19.84398 0 0 0-3.725809 10.772447 25.837672 25.837672 0 0 0 6.965642 14.498255 127.244461 127.244461 0 0 1 13.283317 18.386055 64.79667 64.79667 0 0 1 6.398672 23.326801 111.288281 111.288281 0 0 1 0.809958 11.501409v9.881492c0 6.236679 0.809958 12.554355 1.133942 19.034022a93.550192 93.550192 0 0 1-1.295934 23.002818 80.995837 80.995837 0 0 1-9.962488 24.70373c-2.024896 3.482821-3.968796 6.560663-5.993692 9.476513s-3.968796 5.750704-5.912696 8.585559c-8.099584 10.934438-15.389209 21.301905-23.407797 31.102402-3.8878 5.021742-8.099584 9.7195-12.230371 14.417259l-11.177426 12.230371a131.780228 131.780228 0 0 0-16.766138 23.73178c-5.426721 9.233525-10.448463 20.81593-18.629043 34.099248a98.65293 98.65293 0 0 1-15.551201 19.924976 78.484967 78.484967 0 0 1-21.868876 15.146222 94.441147 94.441147 0 0 1-45.114681 7.370621 150.895245 150.895245 0 0 1-39.849952-8.099584v-6.479667c12.392363-4.535767 24.298751-8.099584 35.395181-13.364313a78.079987 78.079987 0 0 0 25.999664-16.847134 51.270365 51.270365 0 0 0 10.69145-21.868876c2.753858-9.476513 5.426721-21.949872 10.286471-35.719165a150.085287 150.085287 0 0 1 21.706885-41.064889c2.348879-3.077842 5.264729-6.560663 7.370621-9.071534s4.211784-4.697759 6.398671-6.965642c4.373775-4.616763 8.666555-9.15253 13.283318-13.445309 8.990538-8.74755 18.467051-17.009126 27.133605-25.10871l6.23668-5.912696 5.507717-5.426721c3.401825-3.644813 5.912696-5.669709 8.099583-8.099584a241.367596 241.367596 0 0 0 16.199168-31.831364c1.457925-2.834854 2.834854-6.398671 4.211783-8.585559a36.367131 36.367131 0 0 0 3.32083-7.289625 18.791034 18.791034 0 0 0 0-13.445309 24.298751 24.298751 0 0 0-10.448463-10.772446 124.004627 124.004627 0 0 1-18.791035-12.959334 57.183061 57.183061 0 0 1-15.5512-24.703731 68.279491 68.279491 0 0 1-3.158838-26.08066v-4.211783a19.681989 19.681989 0 0 0 0-2.186888v-4.940746a60.503891 60.503891 0 0 0-1.700913-12.149375 192.689097 192.689097 0 0 0-9.7195-29.563481c-8.099584-21.220909-19.762984-43.170781-29.320493-68.68447z" fill="#C6B273" p-id="3766"></path><path d="M1161.432448 124.458285s-301.871486 116.876994-358.163593 502.660167c0 0-70.223391 203.218556 128.62139 5.831701" fill="#FFFFFF" p-id="3767"></path><path d="M1162.323402 126.726168c-43.413769 32.398335-83.6687 65.606628-122.141723 100.353843-19.034022 17.657093-37.987048 35.071198-57.912024 52.161319a457.788474 457.788474 0 0 0-56.697086 55.320157c-34.585223 40.902898-53.862232 92.092267-66.173599 143.362633-1.457925 6.398671-3.077842 12.716346-4.778754 19.034022s-2.834854 12.797342-4.454771 19.115017c-3.320829 12.635351-6.074688 25.351697-8.666555 38.068044q-2.186888 9.638505-3.644813 19.196013l-3.239833 19.196014c-1.9439 12.878338-3.482821 25.756676-5.588713 38.554018v2.267884l-0.809958 2.510871a255.29888 255.29888 0 0 0-11.825393 53.538248 65.849616 65.849616 0 0 0 0 8.666555 1.376929 1.376929 0 0 1 0 0.809958 7.127634 7.127634 0 0 0-2.834854-1.781908c-2.267883-0.809958-2.186888 0.728963 0.890954 0a42.603811 42.603811 0 0 0 10.529459-2.591867 115.095085 115.095085 0 0 0 12.635351-5.345725c4.211784-2.429875 8.666555-4.373775 13.04033-6.965642 8.909542-4.778754 17.414105-10.529459 26.404643-16.199168 17.657093-11.177426 35.233189-23.407797 53.70024-34.747214l3.401825 3.401825a408.057029 408.057029 0 0 1-39.606965 51.837336 323.173392 323.173392 0 0 1-23.488792 23.650785 162.396654 162.396654 0 0 1-28.348544 21.139913 75.245133 75.245133 0 0 1-19.196013 8.099584 45.357669 45.357669 0 0 1-30.292443-1.700912A41.712856 41.712856 0 0 1 777.593174 726.095366c-1.538921-2.267883-3.077842-4.616763-4.454771-7.046638s-1.9439-4.373775-2.834854-6.641659a76.946046 76.946046 0 0 1-3.968796-22.75983 158.427858 158.427858 0 0 1 3.158837-37.096094 236.02187 236.02187 0 0 1 8.990538-33.937256L777.593174 623.716627c2.510871-13.607301 4.940746-27.214601 8.099584-40.497919s6.641659-26.890618 11.09643-40.011943a439.483414 439.483414 0 0 1 30.454435-77.189033c12.716346-24.298751 26.890618-48.597502 41.469868-71.195342s28.429539-46.248623 42.441819-69.65642 27.295597-47.787544 43.575761-70.304387A298.793645 298.793645 0 0 1 1012.481103 194.438688a399.957446 399.957446 0 0 1 69.575424-45.195677 271.417051 271.417051 0 0 1 78.565963-27.05261z" fill="#020202" p-id="3768"></path><path d="M1091.614036 237.447478c8.909542 11.663401-89.581396 144.57757-90.310359 164.259559-3.320829 86.179571-40.497919 166.689434-69.170445 200.869677-15.308213 18.386055-59.207957 22.192859-70.62837 16.199167-3.806804-1.9439-13.121326-20.329955 38.473023-166.608438 46.248623-130.808278 182.078643-227.436312 191.636151-214.719965z" fill="#F7F2DF" p-id="3769"></path><path d="M1206.385138 118.70758c-0.97195 1.457925-3.077842 3.644813-4.778755 5.669709l-5.264729 6.317675c-3.563817 4.211784-6.965642 8.504563-10.367467 12.797343-6.965642 8.504563-13.364313 17.333109-20.005972 26.080659-13.04033 17.495101-25.270701 35.557173-37.17709 53.781236a1017.064731 1017.064731 0 0 0-63.824719 113.394173 982.398513 982.398513 0 0 0-49.569453 119.306869 1285.970912 1285.970912 0 0 0-34.666218 124.085623l-1.700913-13.121326c0.647967 1.457925 1.781908 3.644813 2.834854 5.588713s2.105892 4.049792 3.239834 6.074688c2.267883 4.049792 4.535767 8.099584 7.127633 12.149375 4.85975 8.099584 10.448463 16.199167 15.632197 24.298751a530.603731 530.603731 0 0 0 36.043148 44.95269 422.069309 422.069309 0 0 0 88.52845 75.650112 232.782037 232.782037 0 0 0 25.351697 14.822239 258.295726 258.295726 0 0 0 26.404643 13.121325c8.990538 3.8878 18.062072 8.099584 27.214602 11.420413s18.791034 5.993692 28.186551 8.828547l14.174272 4.211783a128.216411 128.216411 0 0 0 14.498255 3.077842l29.077505 5.426721 7.289626 1.295934 7.370621 0.647966 14.741242 1.295934 29.563481 2.186887h-1.9439a662.869934 662.869934 0 0 1 71.195341-9.314521 521.775185 521.775185 0 0 1 72.086295-0.566971 293.366923 293.366923 0 0 1 72.896254 13.688297 149.275329 149.275329 0 0 1 66.578579 42.927794l-35.557173 12.554354c-1.619917-41.388873-3.806804-83.182725-6.317675-124.652593s-6.074688-83.020733-10.043484-124.328611-9.233525-82.291771-15.308214-122.870686a580.983142 580.983142 0 0 0-27.214601-115.986039l-1.052946-2.753858v-1.37693c-0.728963-3.320829-2.024896-8.099584-3.320829-12.473359s-2.753858-8.74755-4.29278-13.202321c-2.91585-8.74755-6.317675-17.495101-10.043483-26.08066a367.235127 367.235127 0 0 0-26.161656-49.650448 319.933558 319.933558 0 0 0-74.51617-83.425713 279.597631 279.597631 0 0 0-47.86854-29.96846 296.768749 296.768749 0 0 0-53.295261-20.734934c-9.314521-2.429875-18.629043-5.183734-28.186552-6.80365-4.778754-0.890954-9.557509-2.105892-14.417259-2.672863l-14.498255-1.9439c-9.7195-1.619917-19.519997-1.700913-29.401489-2.672863s-19.196013-0.728963-29.239497-1.052946z m-1.9439-4.454771c9.800496-1.457925 20.329955-3.320829 30.616426-4.454771s20.167964-1.9439 30.373439-1.781908a275.385847 275.385847 0 0 1 30.535431 0.728962 299.684599 299.684599 0 0 1 30.616427 3.32083 311.91497 311.91497 0 0 1 60.098911 16.199167 304.463353 304.463353 0 0 1 56.211111 28.267548 338.643597 338.643597 0 0 1 90.715338 87.394508 411.458854 411.458854 0 0 1 32.398335 54.267211c4.697759 9.395517 9.071534 19.034022 13.04033 28.915514 2.024896 4.940746 3.806804 9.962488 5.588713 15.065226s3.239833 9.881492 4.940746 16.199168l-1.376929-4.130788c3.968796 10.610455 8.504563 21.382901 11.987384 31.993356s6.155684 21.301905 8.909542 31.91236l6.965642 31.750368c2.024896 10.529459 3.644813 21.139914 5.426721 31.750368 6.641659 42.279827 11.015434 84.559654 13.769292 126.758486s4.778754 84.316667 5.831701 126.515498 1.376929 84.154675 0.485975 126.515498l-1.295934 59.045966-34.261239-46.491611a118.49691 118.49691 0 0 0-47.86854-35.80016 259.753651 259.753651 0 0 0-63.662728-17.981076 465.888057 465.888057 0 0 0-68.279491-5.588713 512.622656 512.622656 0 0 0-68.846462 3.968796h-1.9439l-30.211448-3.644812-15.146221-1.700913-7.532613-0.809958-7.451617-1.457926a593.618493 593.618493 0 0 1-59.369949-13.445309c-9.7195-2.91585-19.600993-5.345725-29.320493-8.099583s-19.034022-7.127634-28.672527-10.529459a276.276802 276.276802 0 0 1-28.105555-11.987384c-9.15253-4.535767-18.87203-8.099584-27.619581-13.364313A482.330212 482.330212 0 0 1 1020.580687 682.924584a454.710632 454.710632 0 0 1-43.332773-44.952689c-6.560663-8.099584-13.121326-16.199167-19.034022-25.189706-3.077842-4.292779-5.912696-8.74755-8.747551-13.283317-1.457925-2.267883-2.91585-4.535767-4.292779-6.965642s-2.672863-4.616763-4.211784-7.613609l-3.158837-5.993692 1.457925-7.370621c2.186888-11.015434 4.697759-22.030868 7.127633-33.046302s4.778754-22.030868 8.099584-32.803314c6.560663-21.625889 12.959334-43.251777 21.301905-64.148703a802.911737 802.911737 0 0 1 133.157157-232.863033c14.01228-17.495101 29.401489-33.775264 44.790698-49.81244 8.099584-8.099584 16.199167-15.632197 24.298752-23.002818 4.049792-3.725809 8.099584-7.289625 12.716346-10.853442l6.479667-5.26473c2.186888-1.700913 4.049792-3.401825 7.20863-5.507717z" fill="#020202" p-id="3770"></path><path d="M807.885617 739.621671s4.454771 190.178226 242.987513 255.703859 349.173055-115.905043 478.685399-79.7809c0 0 61.556836-49.083478 95.575089-6.479667" fill="#FFFFFF" p-id="3771"></path><path d="M809.991509 739.621671a376.792636 376.792636 0 0 0 45.438665 94.76513 360.593469 360.593469 0 0 0 68.117499 74.759158c13.283317 10.448463 25.837672 22.111864 40.497919 31.91236a337.185671 337.185671 0 0 0 44.547711 28.672526 220.632661 220.632661 0 0 0 24.298751 10.934438c4.130788 1.619917 8.099584 3.320829 12.473359 4.85975a90.553346 90.553346 0 0 0 12.797342 4.130788 225.168428 225.168428 0 0 0 26.161656 5.750704 211.885111 211.885111 0 0 0 26.566634 3.077842 257.566763 257.566763 0 0 0 53.052274-2.510871 372.580852 372.580852 0 0 0 51.108373-11.258421c16.604147-5.021742 33.046302-10.12448 49.326465-16.199168s32.398335-13.445309 48.111528-21.139913a870.705253 870.705253 0 0 1 100.920813-44.790698 229.299216 229.299216 0 0 1 58.721983-12.392363 149.113337 149.113337 0 0 1 61.637832 8.504562l-15.794188 3.239834a148.141387 148.141387 0 0 1 27.133605-13.445309 108.210439 108.210439 0 0 1 29.563481-6.560663 63.82472 63.82472 0 0 1 30.697422 5.021742 50.055428 50.055428 0 0 1 21.058918 20.734934l-3.806804 3.077842a46.329619 46.329619 0 0 0-21.787881-9.7195 51.432357 51.432357 0 0 0-22.030867 3.239833 89.90538 89.90538 0 0 0-20.410951 11.015434 118.658902 118.658902 0 0 0-18.143068 14.498255l-4.940746 4.940746-10.853442-1.781908c-31.345389-5.183734-61.799824 3.644813-93.226209 16.847134s-63.82472 30.049456-98.814922 43.413769a435.433622 435.433622 0 0 1-110.073343 29.320493 396.879604 396.879604 0 0 1-113.394173-6.560663c-9.15253-1.700913-18.305059-3.239833-27.376593-5.426721s-18.062072-4.049792-27.052609-6.155684-17.819084-5.021742-26.809623-7.127633c-4.535767-1.214938-9.071534-2.186888-13.6073-3.32083a128.459398 128.459398 0 0 1-13.607301-3.401825c-35.962152-10.205476-72.896254-23.569789-104.079651-47.301569a251.654067 251.654067 0 0 1-72.248287-90.958325 235.778883 235.778883 0 0 1-17.33311-55.158166 168.552338 168.552338 0 0 1-1.53892-56.697086z" fill="#020202" p-id="3772"></path><path d="M1255.468615 842.972359c60.584886 6.074688 169.200305-7.532613 102.621726 40.902898-120.44081 87.637496-320.581525 62.042812-387.241099 19.681989-105.294589-66.821566-154.378066-150.652258-139.31284-157.455908 121.493756-54.510199 111.126289-137.125953 121.493756-97.195005 35.638168 145.630516 233.915979 187.262376 302.438457 194.066026z" fill="#632C1B" p-id="3773"></path><path d="M941.042774 624.688577a343.503347 343.503347 0 0 0 29.320493 43.413769 359.864506 359.864506 0 0 0 36.043148 39.363977 279.111656 279.111656 0 0 0 42.522815 32.398335 224.196478 224.196478 0 0 0 49.488456 22.516843 228.732245 228.732245 0 0 1-53.133269-15.308213A290.937048 290.937048 0 0 1 996.281935 720.101674a382.138361 382.138361 0 0 1-43.818748-35.557173 368.93604 368.93604 0 0 1-38.71601-42.522815zM911.398298 658.463841a489.700833 489.700833 0 0 0 32.398335 48.597503 515.376514 515.376514 0 0 0 38.230035 44.871694 391.614874 391.614874 0 0 0 44.466715 38.958998 247.685271 247.685271 0 0 0 52.161319 28.834518 254.002946 254.002946 0 0 1-56.697086-21.949872 408.219021 408.219021 0 0 1-50.946382-33.775264 521.451202 521.451202 0 0 1-45.762648-40.983894 495.937513 495.937513 0 0 1-41.307877-46.410615zM870.576396 689.404251a273.19896 273.19896 0 0 0 20.81593 38.311032 318.313641 318.313641 0 0 0 26.890618 35.638168 231.891083 231.891083 0 0 0 32.965306 30.454435 184.913497 184.913497 0 0 0 39.525968 22.678834 193.094077 193.094077 0 0 1-43.818748-15.794188 242.987512 242.987512 0 0 1-39.68796-25.756676 315.2358 315.2358 0 0 1-34.990202-32.398335 299.036632 299.036632 0 0 1-30.373439-37.825056zM849.112499 715.88989a273.927922 273.927922 0 0 0 11.6634 41.955844 304.625345 304.625345 0 0 0 18.143068 40.497919 230.433158 230.433158 0 0 0 25.189705 37.339081 187.18138 187.18138 0 0 0 33.370285 31.021406 187.991339 187.991339 0 0 1-39.120989-25.351697 237.722783 237.722783 0 0 1-32.88431-34.018252A320.500529 320.500529 0 0 1 818.091093 724.151466z" p-id="3774"></path><path d="M1252.471769 195.410639c205.162456-77.837 291.585015 388.78002 287.21124 442.156276s36.77211 124.814586-170.091259 120.84579c-34.909206-0.728963-268.501201-23.73178-311.91497-198.520798-17.657093-72.653266 67.550528-316.20775 194.794989-364.481268z" fill="#F9E47D" p-id="3775"></path><path d="M1219.911443 178.239521a204.51449 204.51449 0 0 0-42.03684 38.635014 513.918589 513.918589 0 0 0-34.747214 45.681653c-5.345725 8.099584-10.529459 16.199167-15.551201 24.298751s-10.12448 16.199167-14.822238 24.298751a721.940198 721.940198 0 0 0-26.161656 51.108374A784.444686 784.444686 0 0 0 1045.6084 469.824536a482.006229 482.006229 0 0 0-12.878338 54.996174 165.555492 165.555492 0 0 0-1.214937 53.052273 54.753186 54.753186 0 0 0 3.320829 11.015434 50.136423 50.136423 0 0 0 2.429875 4.616763l3.8878 5.588713a245.660375 245.660375 0 0 0 17.009126 21.625888 485.327058 485.327058 0 0 0 40.497919 40.497919A581.955092 581.955092 0 0 0 1191.319912 729.011216a277.572735 277.572735 0 0 0 53.133269 21.544893 480.6293 480.6293 0 0 0 56.697087 13.769292 430.168893 430.168893 0 0 0 57.426048 6.722655 279.273648 279.273648 0 0 0 28.510535 0c9.476513-0.485975 18.953026-1.538921 28.510535-2.834855 19.034022-2.672863 38.149039-6.236679 57.588041-9.395517a280.326594 280.326594 0 0 1 61.070861-4.940746 77.837 77.837 0 0 1 17.333109 3.158838 43.089786 43.089786 0 0 1 18.548047 11.015434l1.619917 1.781908a10.448463 10.448463 0 0 0-3.32083-1.781908 12.149376 12.149376 0 0 0-8.990538 0.647966 10.448463 10.448463 0 0 0-4.049791 3.158838c-0.485975 0.728963-0.566971 0.890954-0.566971 0.97195v-1.133942a73.463225 73.463225 0 0 0 1.457925-11.906388 534.572527 534.572527 0 0 0-0.728963-56.697086c-2.024896-38.473023-5.507717-77.270029-9.7195-115.58106a1087.855093 1087.855093 0 0 0-20.086968-113.394173 781.933815 781.933815 0 0 0-31.750368-109.911351 276.600785 276.600785 0 0 0-23.650785-49.81244c-2.186888-3.725809-4.940746-8.099584-7.694604-11.663401l-8.099584-11.6634c-5.588713-8.099584-11.258421-15.308213-17.252113-22.597839A311.428995 311.428995 0 0 0 1352.66362 194.438688a302.843436 302.843436 0 0 0-52.161319-24.298751 363.752306 363.752306 0 0 0-56.292107-13.769292v-3.239834A278.05871 278.05871 0 0 1 1360.763204 178.239521a306.326257 306.326257 0 0 1 96.628034 72.086295 452.766732 452.766732 0 0 1 38.068044 46.815594 311.752979 311.752979 0 0 1 28.672526 54.591195c7.694605 18.629043 14.093276 37.582069 19.924976 56.697086s11.015434 38.149039 15.470205 57.507045 8.099584 38.71601 11.744397 58.236007 6.479667 39.201985 8.099583 59.126961c3.401825 39.282981 5.912696 78.322975 7.046638 117.848944a576.609367 576.609367 0 0 1-0.728962 60.179907 106.752514 106.752514 0 0 1-2.672863 17.090122 43.899744 43.899744 0 0 1-2.105892 5.750704 24.298751 24.298751 0 0 1-2.429875 4.049792 17.333109 17.333109 0 0 1-6.641658 5.669709 17.090122 17.090122 0 0 1-12.554355 0.890954 18.305059 18.305059 0 0 1-6.398671-3.725809 19.600993 19.600993 0 0 1-2.915851-2.996846l-0.647966-0.728962a29.401489 29.401489 0 0 0-17.576097-6.398671 298.307669 298.307669 0 0 0-55.563144 0.728962c-19.277009 1.376929-38.878002 3.401825-58.640987 4.373776-9.881492 0.566971-19.84398 0.97195-29.887464 0.728962a259.18668 259.18668 0 0 1-29.96846-2.429875c-19.600993-2.672863-39.039994-5.8317-58.317003-9.962488s-38.230035-8.909542-57.264057-14.093276a368.774048 368.774048 0 0 1-56.130115-20.005972 556.846383 556.846383 0 0 1-51.999328-29.482484 632.415499 632.415499 0 0 1-48.597502-33.694269 424.094205 424.094205 0 0 1-45.519661-39.282981 208.888265 208.888265 0 0 1-20.329955-23.245805l-4.697759-6.317676a61.961816 61.961816 0 0 1-4.697758-8.099584A87.070525 87.070525 0 0 1 1004.381519 583.218708a173.736071 173.736071 0 0 1 0-63.41974 405.951138 405.951138 0 0 1 13.850288-58.802978 739.330005 739.330005 0 0 1 44.547711-110.478323 715.112249 715.112249 0 0 1 28.834518-52.242315 389.994958 389.994958 0 0 1 35.071198-48.597502 364.481269 364.481269 0 0 1 41.63186-42.846798 228.732245 228.732245 0 0 1 23.893772-18.143068 113.394172 113.394172 0 0 1 26.809622-13.688297z" fill="#895011" p-id="3776"></path><path d="M1440.544104 611.243268l4.454771 1.619917 2.024896 0.728963h-0.728963a4.535767 4.535767 0 0 0-5.426721 2.024895 5.183734 5.183734 0 0 0-0.647966 2.105892 5.588713 5.588713 0 0 0 0.647966 2.429875h-0.566971l-8.099583-4.130787c-5.264729-2.834854-10.367467-5.8317-15.389209-8.828547-10.043484-6.074688-19.681989-12.392363-28.99651-18.87203a231.16212 231.16212 0 0 1-26.161656-22.030868 53.295261 53.295261 0 0 0-28.915514-15.470205 31.669372 31.669372 0 0 0-8.099583 0l-3.644813 0.890955-3.968796 1.619916a45.438665 45.438665 0 0 1-21.544893 3.158838 61.961816 61.961816 0 0 1-37.420077-19.762984 143.038649 143.038649 0 0 1-36.934102-66.902562l2.672863 5.021742L1214.970697 461.724952l-9.395518-13.445309a277.815723 277.815723 0 0 0-20.977921-27.05261l1.376929-2.91585a62.690778 62.690778 0 0 1 17.981076 4.697759 104.48463 104.48463 0 0 1 16.199167 8.504563 162.801633 162.801633 0 0 1 28.429539 22.840826l0.566971 0.647967 2.105892 4.373775 14.174271 29.725472a195.442956 195.442956 0 0 0 15.227218 28.267548 72.248287 72.248287 0 0 0 19.600992 21.058917 22.921822 22.921822 0 0 0 13.688297 2.91585c1.052946 0 2.753858-0.404979 4.616763-0.728962s3.401825 0 5.102738-0.485975a67.388537 67.388537 0 0 1 9.962488 0 334.350817 334.350817 0 0 1 37.501072 7.613609 94.198159 94.198159 0 0 1 34.180244 15.713192 158.913833 158.913833 0 0 1 26.809622 25.351697 127.406452 127.406452 0 0 1 11.015434 14.98423c1.619917 2.834854 3.239833 5.345725 4.778754 8.504563l0.809959 1.700913a4.778754 4.778754 0 0 1 0.809958 2.672862 4.211784 4.211784 0 0 1-0.647967 2.186888 4.616763 4.616763 0 0 1-5.507717 2.024896 3.401825 3.401825 0 0 1-1.214937-0.728963 3.563817 3.563817 0 0 1-0.566971-0.728962 23.083814 23.083814 0 0 1-1.376929-2.105892c-0.728963-1.538921-1.457925-2.91585-2.105892-4.454771z" fill="#BA9F49" p-id="3777"></path></svg>