<svg viewBox="0 0 40 40"><path d="M17.502 16.437c-3.796 0-8.854-1.398-11.748-7.933 10.797.114 13.43 2.716 16.472 7.258-.88.256-2.64.675-4.724.675z" fill="#BAE0BD"></path><path d="M6.545 9.017c9.424.22 12.144 2.51 14.87 6.442-.936.226-2.328.476-3.913.476-5.004 0-8.684-2.326-10.957-6.92M5 8c2.928 7.355 8.365 8.937 12.502 8.937 3.122 0 5.504-.9 5.504-.9C19.55 10.78 16.836 8 5 8z" fill="#5E9C76"></path><path d="M25.584 14.264c-1.03-.488-3.487-1.888-4.742-4.604-1.053-2.277-1.05-4.98.008-8.036 5.153 1.995 6.744 6.243 4.734 12.64z" fill="#BAE0BD"></path><path d="M21.157 2.29c4.392 1.91 5.745 5.607 4.122 11.256-1.127-.62-2.978-1.91-3.99-4.106-.934-2.03-.978-4.43-.133-7.15M20.55.98c-3.998 10.63 5.34 13.96 5.34 13.96 2.8-8.283-.42-12.25-5.34-13.96z" fill="#5E9C76"></path><path d="M14.143 23.234C22.845 12.402 37.5 11.5 37.5 11.5m-8.416 14.23c-6.28-7.705.337-12.496.337-12.496" fill="none" stroke="#967A44" stroke-linecap="round" stroke-linejoin="round" stroke-miterlimit="10"></path><path d="M8.224 38.5a6.44 6.44 0 01-2.706-.583c-1.598-.733-2.838-2.126-3.492-3.92-.856-2.35-.662-5.147.534-7.676 1.645-3.48 4.947-5.82 8.217-5.82a6.44 6.44 0 012.706.583c1.598.733 2.838 2.126 3.492 3.92.855 2.35.66 5.147-.534 7.676-1.644 3.48-4.947 5.82-8.216 5.82z" fill="#C1CFE0"></path><path d="M10.777 21c.88 0 1.72.18 2.498.538 1.496.686 2.613 1.944 3.23 3.636.81 2.225.623 4.882-.516 7.292C14.423 35.776 11.303 38 8.222 38c-.88 0-1.72-.18-2.498-.538-1.496-.686-2.613-1.944-3.23-3.636-.81-2.225-.623-4.882.516-7.292C4.577 23.224 7.697 21 10.778 21m0-1c-3.382 0-6.882 2.324-8.67 6.107-2.315 4.9-.882 10.39 3.2 12.264.93.428 1.92.63 2.916.63 3.382 0 6.882-2.324 8.67-6.107 2.315-4.9.882-10.39-3.2-12.264a6.943 6.943 0 00-2.916-.63z" fill="#66798F"></path><path d="M11.5 23.5s-3.343.043-5 3" fill="none" stroke="#FFF" stroke-linecap="round" stroke-miterlimit="10"></path><path d="M31.292 38.5c-3.88 0-7.452-3.14-8.497-7.466-.624-2.58-.24-5.22 1.05-7.247 1.06-1.66 2.654-2.78 4.493-3.15.45-.09.91-.137 1.37-.137 3.88 0 7.452 3.14 8.497 7.466.624 2.58.24 5.22-1.05 7.247-1.06 1.66-2.654 2.78-4.493 3.15-.45.09-.91.137-1.37.137z" fill="#C1CFE0"></path><path d="M29.708 21c3.65 0 7.02 2.98 8.012 7.083.592 2.448.232 4.95-.987 6.862-.984 1.545-2.465 2.585-4.17 2.928a6.436 6.436 0 01-1.27.127c-3.65 0-7.02-2.98-8.013-7.083-.592-2.448-.232-4.95.987-6.862.984-1.545 2.465-2.585 4.17-2.928a6.436 6.436 0 011.27-.127m0-1c-.487 0-.978.048-1.467.146-4.524.912-7.18 5.84-5.93 11.005C23.42 35.76 27.264 39 31.29 39c.488 0 .98-.048 1.468-.146 4.524-.912 7.18-5.84 5.93-11.005C37.58 23.24 33.736 20 29.71 20z" fill="#66798F"></path><path d="M25.5 30.5c-.748-4.648 2-6 2-6" fill="none" stroke="#FFF" stroke-linecap="round" stroke-miterlimit="10"></path></svg>