<svg viewBox="0 0 40 40"><path d="M20 37.38c-2.383-1.77-18.5-14.075-18.5-23.2 0-5.338 4.342-9.68 9.68-9.68a9.708 9.708 0 018.387 4.865l.433.753.434-.753A9.71 9.71 0 0128.822 4.5c5.337 0 9.68 4.342 9.68 9.68C38.5 23.307 22.383 35.61 20 37.38z" fill="#BAE0BD"></path><path d="M28.82 5C33.884 5 38 9.117 38 14.18c0 3.883-3.176 9.07-9.184 14.997-3.683 3.634-7.41 6.524-8.816 7.58-1.402-1.052-5.116-3.933-8.798-7.562C5.182 23.26 2 18.067 2 14.18 2 9.116 6.117 5 11.18 5a9.209 9.209 0 017.954 4.614L20 11.12l.867-1.507A9.207 9.207 0 0128.82 5m0-1C25.046 4 21.758 6.06 20 9.115 18.243 6.06 14.955 4 11.18 4 5.556 4 1 8.557 1 14.18 1 24.356 20 38 20 38s19-13.643 19-23.82C39 8.556 34.443 4 28.82 4z" fill="#5E9C76"></path><path fill="#FFF" d="M26.875 13H31L20 32v-6.786M13.125 13H9l11 19v-6.786"></path></svg>