<svg viewBox="0 0 40 40"><path d="M12.495 38.5c-.193-14.328-5.3-20.982-6.725-22.564l3.367-3.367c2.872 3.048 5.228 7.78 7.006 14.075l.83 2.933.835-16.745h4.383l.837 16.745.83-2.933c1.777-6.295 4.133-11.027 7.005-14.076l3.367 3.366c-1.427 1.582-6.532 8.236-6.726 22.564h-15.01z" fill="#BAE0BD"></path><path d="M30.88 13.293l2.668 2.67c-1.765 2.123-6.25 8.798-6.534 22.037H12.987c-.286-13.24-4.77-19.914-6.534-22.038l2.67-2.67c2.66 3 4.857 7.53 6.54 13.49l1.657 5.866.304-6.09.66-13.225h3.432l.66 13.226.305 6.088 1.658-5.867c1.682-5.958 3.88-10.49 6.54-13.487m-.02-1.436c-3.648 3.647-5.996 9.387-7.483 14.652l-.71-14.177h-5.332l-.71 14.176c-1.486-5.266-3.834-11.006-7.48-14.653l-4.072 4.07S11.91 22.353 12 39h16c.09-16.65 6.93-23.072 6.93-23.072l-4.073-4.07z" fill="#5E9C76"></path><path d="M21 22.5a6.5 6.5 0 01-5.402-2.886l-.18-.27-.32.055c-.397.067-.756.1-1.098.1-.61 0-1.225-.09-1.826-.265l-.232-.068-.197.14A6.457 6.457 0 018 20.5 6.508 6.508 0 011.5 14a6.468 6.468 0 014.088-6.032l.217-.087.072-.22A7.484 7.484 0 0113 2.5c.854 0 1.708.15 2.536.45l.26.094.218-.17A6.43 6.43 0 0120 1.5c1.48 0 2.877.49 4.04 1.414l.228.183.27-.11A6.43 6.43 0 0127 2.5c2.67 0 5.04 1.605 6.032 4.088l.086.217.222.073A7.482 7.482 0 0138.5 14c0 4.136-3.364 7.5-7.5 7.5a7.441 7.441 0 01-4.354-1.402l-.376-.27-.298.355A6.49 6.49 0 0121 22.5z" fill="#D8F0DA"></path><path d="M20 2c1.366 0 2.655.45 3.728 1.305l.46.365.542-.222A5.95 5.95 0 0127 3a5.97 5.97 0 015.568 3.774l.173.433.444.146A6.986 6.986 0 0138 14c0 3.86-3.14 7-7 7a6.944 6.944 0 01-4.064-1.31l-.752-.537-.595.707a5.997 5.997 0 01-9.576-.524l-.36-.538-.64.11A6.037 6.037 0 0114 19c-.563 0-1.13-.082-1.686-.245l-.464-.136-.394.278A5.957 5.957 0 018 20c-3.308 0-6-2.692-6-6a5.97 5.97 0 013.774-5.568l.433-.173.146-.444A6.986 6.986 0 0113 3c.796 0 1.593.14 2.368.42l.518.187.435-.34A5.957 5.957 0 0120 2m0-1c-1.62 0-3.107.556-4.294 1.48A7.94 7.94 0 0013 2C9.454 2 6.452 4.31 5.403 7.503A6.998 6.998 0 008 21a6.962 6.962 0 004.034-1.285A6.974 6.974 0 0014 20a7.1 7.1 0 001.183-.107 6.994 6.994 0 0011.171.612A7.96 7.96 0 0031 22a8 8 0 008-8c0-3.546-2.31-6.548-5.503-7.597a6.998 6.998 0 00-9.147-3.881A6.958 6.958 0 0020 1z" fill="#5E9C76"></path></svg>